<svg width="41" height="33" viewBox="0 0 41 33" xmlns="http://www.w3.org/2000/svg"><title>rings</title><g fill-rule="nonzero" fill="none"><path d="M13.242 7.54l-2.79-4.82L14.79.22l6.84 1.834 2.504 4.33-4.826 2.78c4.783 2.718 7.327 8.404 5.84 13.957-1.77 6.6-8.56 10.514-15.172 8.743-6.61-1.77-10.535-8.557-8.767-15.156C2.695 11.154 7.74 7.502 13.242 7.54zM10.89 28.45c4.72 1.264 9.572-1.532 10.835-6.245 1.263-4.714-1.54-9.56-6.262-10.826-4.72-1.266-9.573 1.53-10.836 6.243-1.263 4.714 1.54 9.56 6.262 10.826z" fill="#FCE4E2"/><path d="M21.694 9.164l-4.826-2.78 2.505-4.33L26.213.22l4.334 2.5-2.79 4.82c5.502-.038 10.548 3.614 12.036 9.167 1.768 6.6-2.157 13.385-8.767 15.156-6.61 1.77-13.403-2.143-15.17-8.742-1.49-5.552 1.055-11.238 5.838-13.956zM30.11 28.45c4.722-1.266 7.526-6.113 6.263-10.827-1.263-4.713-6.115-7.51-10.836-6.244-4.722 1.264-7.525 6.11-6.262 10.825 1.263 4.713 6.114 7.51 10.836 6.244z" fill="#B3C3C9"/></g></svg>